<?xml version="1.0" standalone="no"?>
<!DOCTYPE svg PUBLIC "-//W3C//DTD SVG 20010904//EN"
 "http://www.w3.org/TR/2001/REC-SVG-20010904/DTD/svg10.dtd">
<svg version="1.0" xmlns="http://www.w3.org/2000/svg"
 width="1368.000000pt" height="912.000000pt" viewBox="0 0 1368.000000 912.000000"
 preserveAspectRatio="xMidYMid meet">
<metadata>
Created by potrace 1.16, written by Peter Selinger 2001-2019
</metadata>
<g transform="translate(0.000000,912.000000) scale(0.100000,-0.100000)"
fill="#000000" stroke="none">
<path d="M4390 6370 l0 -320 -965 0 -965 0 0 -595 0 -595 450 0 449 0 3 -92 3
-93 201 -3 201 -2 11 -38 c13 -45 72 -352 72 -375 0 -16 -62 -17 -875 -17
l-875 0 0 -60 0 -60 255 0 c210 0 255 -2 255 -14 0 -12 -504 -2743 -515 -2794
-6 -23 -5 -23 77 -20 l83 3 260 1410 261 1410 546 3 547 2 10 -52 c6 -29 38
-199 71 -378 33 -179 65 -349 71 -377 l10 -53 328 0 327 0 12 -33 c7 -19 24
-44 38 -58 23 -22 35 -24 135 -27 l109 -4 0 -155 c0 -151 -1 -156 -25 -185
l-25 -30 0 -519 0 -519 -304 0 c-298 0 -304 0 -336 -22 -43 -30 -70 -82 -70
-135 0 -41 1 -43 30 -43 25 0 30 4 30 25 0 34 24 80 52 99 18 13 52 16 169 16
l147 0 -14 -38 c-7 -20 -13 -52 -14 -69 0 -30 3 -33 29 -33 25 0 30 4 36 37 4
22 20 50 40 70 l33 33 316 0 c277 0 320 -2 342 -16 30 -20 46 -48 54 -94 4
-29 10 -35 30 -35 22 0 25 5 28 42 2 24 -4 55 -13 72 l-16 31 76 0 75 0 -26
-67 c-14 -38 -27 -80 -29 -95 -2 -14 -24 -84 -49 -154 -26 -70 -44 -130 -40
-133 3 -3 290 -6 637 -6 348 0 451 1 230 2 -222 2 -403 5 -403 6 0 2 36 104
80 227 l81 223 -22 23 -22 24 229 0 229 0 83 577 c179 1248 189 1363 128 1486
-44 91 -106 137 -321 243 l-190 93 1988 0 c1093 1 1987 -2 1987 -5 0 -7 495
-2691 511 -2771 l10 -53 80 0 c50 0 79 4 79 11 0 10 -501 2723 -516 2792 l-6
27 256 0 256 0 0 60 0 60 -2465 0 -2464 0 -56 25 -56 24 -52 -20 c-29 -11
-110 -50 -181 -86 -71 -36 -154 -74 -184 -84 -57 -20 -152 -36 -152 -25 0 27
-225 1198 -235 1221 -19 46 -72 103 -119 127 -31 17 -64 23 -138 26 l-97 4 26
52 c14 28 47 85 72 126 40 64 121 223 121 237 0 2 -4 1 -10 -2 -17 -10 -135
52 -188 100 -64 58 -94 125 -100 226 -4 67 -1 84 21 133 20 43 37 63 74 86
117 74 278 87 394 31 l41 -20 44 48 c89 99 174 132 244 96 37 -19 50 -43 50
-92 -1 -79 -70 -176 -154 -214 -23 -10 -33 -19 -24 -19 10 0 15 -5 12 -13 -2
-7 2 -21 10 -32 12 -16 15 -17 16 -4 0 22 42 59 68 59 11 0 28 -10 36 -22 41
-58 -5 -159 -66 -149 -4 0 -3 -11 2 -25 9 -22 5 -30 -28 -63 -20 -21 -48 -56
-61 -78 -27 -47 -91 -91 -142 -99 -36 -6 -37 -8 -58 -78 -38 -132 -38 -144 9
-205 51 -68 62 -93 116 -261 l42 -135 341 -3 341 -2 0 -80 c0 -44 3 -80 8 -80
4 0 39 21 77 45 39 25 81 51 95 57 14 6 52 52 85 101 66 100 85 115 85 68 0
-37 18 -78 37 -85 42 -17 73 41 73 136 0 57 1 59 23 53 65 -20 123 -93 133
-169 l7 -46 713 0 714 0 0 780 0 780 -1800 0 -1800 0 0 -320z m1878 -140 c6 0
12 -8 12 -17 -1 -10 -47 -169 -104 -353 l-102 -335 -29 2 c-15 1 -31 6 -35 10
-4 4 41 165 99 356 97 319 108 348 126 343 11 -3 26 -6 33 -6z m-400 -113 l21
-22 -99 -105 c-54 -58 -99 -110 -100 -117 0 -6 11 -20 25 -31 14 -11 61 -54
105 -96 l81 -76 -18 -25 c-10 -13 -23 -24 -30 -22 -16 3 -274 240 -271 249 6
16 244 267 254 268 6 0 20 -10 32 -23z m717 -112 l127 -135 -84 -77 c-45 -43
-108 -102 -139 -130 l-56 -53 -26 28 -27 28 107 99 c60 54 109 102 111 106 2
3 -42 55 -97 115 l-101 108 22 23 c12 13 25 23 29 23 3 0 64 -61 134 -135z
m-2827 -142 l3 -23 -560 0 -561 0 0 25 0 25 558 -2 557 -3 3 -22z m0 -100 l3
-23 -560 0 -561 0 0 25 0 25 558 -2 557 -3 3 -22z m0 -100 l3 -23 -560 0
c-537 0 -561 1 -561 18 0 10 3 22 7 25 3 4 254 6 557 5 l551 -3 3 -22z m0
-100 l3 -23 -560 0 c-537 0 -561 1 -561 18 0 10 3 22 7 25 3 4 254 6 557 5
l551 -3 3 -22z m2002 -2331 c0 -66 -42 -189 -105 -308 -98 -184 -106 -211
-110 -394 l-4 -155 -41 -75 c-147 -271 -198 -412 -187 -517 l6 -53 -49 0 -49
0 -3 524 -3 524 -22 24 c-22 23 -23 32 -23 180 l0 156 109 4 c99 3 112 5 135
27 14 13 30 39 36 57 l12 34 149 0 149 0 0 -28z"/>
<path d="M10720 6417 c-50 -25 -66 -99 -27 -134 32 -30 62 -36 101 -22 50 18
70 73 44 122 -24 46 -69 59 -118 34z"/>
<path d="M8465 5558 c-2 -7 -56 -197 -120 -423 -64 -225 -118 -418 -121 -427
-5 -17 -33 -18 -395 -18 l-389 0 0 -40 0 -40 1190 0 1190 0 0 30 c0 22 202
744 256 913 5 16 -38 17 -801 17 -635 0 -807 -3 -810 -12z m1108 -148 c-5 -20
-14 -20 -519 -20 -283 0 -514 2 -514 4 0 2 3 11 6 20 5 14 61 16 519 16 508 0
513 0 508 -20z m-25 -87 c-3 -17 -37 -18 -516 -21 -507 -2 -512 -2 -512 18 0
20 6 20 516 20 486 0 515 -1 512 -17z m-330 -70 c242 -5 302 -9 302 -20 0 -11
-91 -13 -515 -13 -283 0 -515 2 -515 4 0 2 3 11 6 20 5 14 34 16 213 16 114 0
343 -3 509 -7z m280 -100 c-3 -17 -37 -18 -520 -21 -513 -2 -516 -2 -511 18 5
20 13 20 520 20 485 0 514 -1 511 -17z"/>
<path d="M10366 5169 c-21 -16 -26 -29 -26 -64 0 -37 5 -47 29 -64 42 -30 86
-27 122 8 17 18 29 40 29 56 0 16 -12 38 -29 56 -36 36 -86 39 -125 8z"/>
<path d="M6330 4915 c-95 -24 -130 -40 -130 -58 0 -7 9 -49 21 -94 l22 -83 99
0 98 0 0 130 c0 98 -3 130 -12 129 -7 -1 -51 -12 -98 -24z"/>
<path d="M9970 4742 c-40 -20 -80 -74 -80 -108 l0 -24 445 0 445 0 0 24 c0 34
-40 88 -80 108 -31 16 -71 18 -365 18 -294 0 -334 -2 -365 -18z"/>
</g>
</svg>
